<svg version="1.1" id="Layer_1" xmlns="http://www.w3.org/2000/svg" x="0px" y="0px"
     width="100%" viewBox="0 0 128 128" enable-background="new 0 0 128 128" xml:space="preserve">
<path fill="#FAFAFA" opacity="1.000000" stroke="none"
      d="
M88.000000,129.000000 
	C58.666668,129.000000 29.833334,129.000000 1.000000,129.000000 
	C1.000000,86.333336 1.000000,43.666668 1.000000,1.000000 
	C43.666668,1.000000 86.333336,1.000000 129.000000,1.000000 
	C129.000000,43.666668 129.000000,86.333336 129.000000,129.000000 
	C115.500000,129.000000 102.000000,129.000000 88.000000,129.000000 
M91.307426,25.076439 
	C93.474380,26.745508 96.268562,28.006517 97.675911,30.169764 
	C100.486893,34.490528 99.221413,40.522461 95.736671,42.772438 
	C92.444443,44.898113 89.932999,43.634823 85.958122,37.853783 
	C85.675224,37.442352 85.383476,37.036713 85.110374,36.618885 
	C81.907944,31.719444 77.492912,28.901161 71.579765,28.318832 
	C69.836937,28.147198 68.122787,27.323963 66.473938,26.616528 
	C55.586918,21.945467 43.639225,29.802181 43.724792,41.650501 
	C43.784767,49.954506 48.438553,55.133224 55.920799,58.592972 
	C46.461098,59.334885 41.509052,51.733322 40.838047,35.689068 
	C39.211697,36.007671 37.599213,36.154724 36.098648,36.644596 
	C25.451397,40.120499 17.222149,46.994694 14.356153,57.647644 
	C11.094147,69.772575 9.848751,82.449806 7.918434,94.916649 
	C7.410228,98.198875 9.496051,99.917412 12.687862,99.896873 
	C21.374914,99.840965 23.630796,101.419167 26.247787,92.153305 
	C26.643965,90.750572 27.552452,89.458969 28.375071,88.215958 
	C32.293507,82.295074 38.167980,79.620094 44.126392,81.058990 
	C50.849667,82.682594 51.155846,88.219452 51.676876,93.606598 
	C52.276489,99.806198 53.483471,100.394539 62.283756,99.980110 
	C67.674057,99.726257 67.235062,96.228302 66.985123,92.594673 
	C66.390083,83.944016 67.606689,75.655518 72.082985,68.061157 
	C75.016266,63.084652 78.828087,60.027863 85.176437,61.209583 
	C87.507309,61.643467 90.069267,60.835926 92.525810,60.594662 
	C92.490860,60.192692 92.455910,59.790722 92.420967,59.388752 
	C90.125847,58.803093 87.830734,58.217438 85.535622,57.631779 
	C86.743835,57.102852 87.872543,57.115082 88.986786,56.994137 
	C99.086159,55.897892 105.205841,50.707489 106.666916,40.656361 
	C107.934486,31.936348 101.868973,21.874098 94.222275,20.210581 
	C92.709091,19.881392 90.920937,20.816212 89.259583,21.168119 
	C89.685051,22.409872 90.110512,23.651627 91.307426,25.076439 
M114.271767,100.801804 
	C122.653511,92.381195 124.277527,81.946785 118.636665,72.756973 
	C113.375137,64.185143 102.513329,60.169792 93.004913,63.523102 
	C84.383720,66.563522 79.225082,72.838478 78.175110,81.841629 
	C77.121773,90.873611 80.687233,98.271271 88.559311,102.936287 
	C97.150558,108.027496 105.682411,107.239830 114.271767,100.801804 
z"/>
    <path fill="#049263" opacity="1.000000" stroke="none"
          d="
M90.921700,24.984909 
	C90.110512,23.651627 89.685051,22.409872 89.259583,21.168121 
	C90.920937,20.816212 92.709091,19.881392 94.222275,20.210581 
	C101.868973,21.874098 107.934486,31.936348 106.666916,40.656361 
	C105.205841,50.707489 99.086159,55.897892 88.986786,56.994137 
	C87.872543,57.115082 86.743835,57.102852 85.535622,57.631779 
	C87.830734,58.217438 90.125847,58.803093 92.420967,59.388752 
	C92.455910,59.790722 92.490860,60.192692 92.525810,60.594662 
	C90.069267,60.835926 87.507309,61.643467 85.176437,61.209583 
	C78.828087,60.027863 75.016266,63.084652 72.082985,68.061157 
	C67.606689,75.655518 66.390083,83.944016 66.985123,92.594673 
	C67.235062,96.228302 67.674057,99.726257 62.283756,99.980110 
	C53.483471,100.394539 52.276489,99.806198 51.676876,93.606598 
	C51.155846,88.219452 50.849667,82.682594 44.126392,81.058990 
	C38.167980,79.620094 32.293507,82.295074 28.375071,88.215958 
	C27.552452,89.458969 26.643965,90.750572 26.247787,92.153305 
	C23.630796,101.419167 21.374914,99.840965 12.687862,99.896873 
	C9.496051,99.917412 7.410228,98.198875 7.918434,94.916649 
	C9.848751,82.449806 11.094147,69.772575 14.356153,57.647644 
	C17.222149,46.994694 25.451397,40.120499 36.098648,36.644596 
	C37.599213,36.154724 39.211697,36.007671 40.838047,35.689068 
	C41.509052,51.733322 46.461098,59.334885 55.920799,58.592972 
	C48.438553,55.133224 43.784767,49.954506 43.724792,41.650501 
	C43.639225,29.802181 55.586918,21.945467 66.473938,26.616528 
	C68.122787,27.323963 69.836937,28.147198 71.579765,28.318832 
	C77.492912,28.901161 81.907944,31.719444 85.110374,36.618885 
	C85.383476,37.036713 85.675224,37.442352 85.958122,37.853783 
	C89.932999,43.634823 92.444443,44.898113 95.736671,42.772438 
	C99.221413,40.522461 100.486893,34.490528 97.675911,30.169764 
	C96.268562,28.006517 93.474380,26.745508 90.921700,24.984909 
z"/>
    <path fill="#0E9769" opacity="1.000000" stroke="none"
          d="
M113.983543,101.020981 
	C105.682411,107.239830 97.150558,108.027496 88.559311,102.936287 
	C80.687233,98.271271 77.121773,90.873611 78.175110,81.841629 
	C79.225082,72.838478 84.383720,66.563522 93.004913,63.523102 
	C102.513329,60.169792 113.375137,64.185143 118.636665,72.756973 
	C124.277527,81.946785 122.653511,92.381195 113.983543,101.020981 
M110.640465,70.765221 
	C102.918282,65.713905 95.362610,65.786469 89.032257,70.972740 
	C83.371552,75.610390 81.214355,83.535454 83.764435,90.325539 
	C86.265068,96.983948 92.259987,101.212990 99.429146,101.376045 
	C106.547668,101.537933 113.129585,97.609047 115.713928,91.164436 
	C118.748116,83.598030 117.192047,76.856819 110.640465,70.765221 
z"/>
    <path fill="#F5F8F7" opacity="1.000000" stroke="none"
          d="
M110.934921,70.986938 
	C117.192047,76.856819 118.748116,83.598030 115.713928,91.164436 
	C113.129585,97.609047 106.547668,101.537933 99.429146,101.376045 
	C92.259987,101.212990 86.265068,96.983948 83.764435,90.325539 
	C81.214355,83.535454 83.371552,75.610390 89.032257,70.972740 
	C95.362610,65.786469 102.918282,65.713905 110.934921,70.986938 
M100.320107,90.957527 
	C103.711647,87.287453 107.204056,83.702072 110.414177,79.879646 
	C111.100304,79.062653 110.762123,77.385437 110.895828,76.104515 
	C109.659813,76.342873 108.066895,76.174103 107.249825,76.890366 
	C103.789864,79.923431 100.560501,83.219566 97.082436,86.578339 
	C95.507614,85.111671 94.048561,83.482437 92.303452,82.262360 
	C91.617767,81.782982 89.886581,81.820869 89.369827,82.347565 
	C88.831268,82.896484 88.730423,84.686722 89.224754,85.294624 
	C91.213821,87.740631 93.342003,90.145844 95.789467,92.102448 
	C96.518257,92.685066 98.458160,91.752754 100.320107,90.957527 
z"/>
    <path fill="#0D9668" opacity="1.000000" stroke="none"
          d="
M100.081619,91.236046 
	C98.458160,91.752754 96.518257,92.685066 95.789467,92.102448 
	C93.342003,90.145844 91.213821,87.740631 89.224754,85.294624 
	C88.730423,84.686722 88.831268,82.896484 89.369827,82.347565 
	C89.886581,81.820869 91.617767,81.782982 92.303452,82.262360 
	C94.048561,83.482437 95.507614,85.111671 97.082436,86.578339 
	C100.560501,83.219566 103.789864,79.923431 107.249825,76.890366 
	C108.066895,76.174103 109.659813,76.342873 110.895828,76.104515 
	C110.762123,77.385437 111.100304,79.062653 110.414177,79.879646 
	C107.204056,83.702072 103.711647,87.287453 100.081619,91.236046 
z"/>
</svg>